<?xml version="1.0" standalone="no"?>
<!DOCTYPE svg PUBLIC "-//W3C//DTD SVG 20010904//EN"
 "http://www.w3.org/TR/2001/REC-SVG-20010904/DTD/svg10.dtd">
<svg version="1.0" xmlns="http://www.w3.org/2000/svg"
 width="1024.000000pt" height="1024.000000pt" viewBox="0 0 1024.000000 1024.000000"
 preserveAspectRatio="xMidYMid meet">

<g transform="translate(0.000000,1024.000000) scale(0.100000,-0.100000)"
fill="#000000" stroke="none">
<path d="M4881 8734 c-425 -71 -804 -394 -955 -812 -51 -142 -66 -248 -73
-502 l-6 -235 -69 -34 c-139 -68 -263 -214 -311 -366 -22 -70 -22 -72 -22
-870 0 -798 0 -800 22 -870 62 -194 212 -346 407 -413 l81 -27 1132 -3 c1269
-3 1210 -6 1363 69 153 76 275 225 327 399 15 48 17 143 21 775 4 756 0 848
-39 964 -28 81 -106 198 -172 256 -29 26 -86 63 -128 83 l-76 37 -6 245 c-5
258 -13 312 -63 465 -141 429 -528 761 -978 840 -110 19 -339 18 -455 -1z
m441 -433 c285 -73 514 -296 599 -583 18 -61 23 -106 26 -280 l5 -208 -837 0
-837 0 5 208 c5 227 13 272 73 400 95 208 285 378 497 446 45 15 109 31 142
36 84 13 237 4 327 -19z m-78 -1596 c98 -26 166 -65 242 -140 107 -106 154
-218 154 -370 0 -161 -50 -277 -175 -399 l-80 -80 48 -254 c29 -154 46 -267
43 -286 -10 -53 -43 -96 -92 -117 -41 -19 -63 -20 -284 -17 -265 3 -267 4
-317 78 -32 47 -30 84 22 360 l46 240 -70 66 c-127 119 -183 241 -184 399 0
151 42 261 143 368 128 138 328 198 504 152z"/>
<path d="M5525 3130 l0 -890 163 0 162 0 0 173 0 172 85 85 c46 46 86 82 89
79 2 -2 62 -85 133 -184 71 -99 153 -213 183 -252 l55 -73 188 0 c103 0 187 3
187 6 0 9 -123 177 -337 463 -101 134 -183 247 -183 251 0 4 59 70 131 146
139 147 362 399 367 415 2 5 -76 9 -195 9 l-198 0 -46 -58 c-71 -89 -288 -328
-378 -417 l-81 -80 0 523 0 522 -163 0 -162 0 0 -890z"/>
<path d="M6940 3125 l0 -885 165 0 165 0 0 885 0 885 -165 0 -165 0 0 -885z"/>
<path d="M1410 3105 l0 -865 550 0 550 0 0 150 0 150 -385 0 -385 0 0 715 0
715 -165 0 -165 0 0 -865z"/>
<path d="M3135 3545 c-233 -51 -398 -194 -480 -415 -24 -63 -29 -95 -33 -202
-5 -155 12 -243 70 -360 77 -152 213 -269 383 -325 71 -24 95 -27 215 -27 120
0 144 3 215 27 254 85 419 282 455 548 34 245 -61 491 -243 626 -164 122 -387
171 -582 128z m280 -306 c77 -29 154 -102 191 -181 26 -57 29 -73 29 -173 0
-100 -3 -116 -29 -173 -62 -134 -208 -223 -344 -209 -123 13 -247 108 -294
225 -18 47 -23 76 -23 162 0 93 3 112 26 161 44 94 118 163 208 195 57 21 171
17 236 -7z"/>
<path d="M4640 3545 c-146 -33 -256 -91 -342 -181 -69 -72 -85 -95 -123 -176
-120 -257 -66 -589 129 -782 74 -74 164 -127 271 -163 71 -24 95 -27 220 -27
128 0 147 2 220 28 104 36 179 82 244 151 46 49 110 159 99 170 -2 3 -63 29
-134 59 l-129 54 -47 -52 c-124 -139 -313 -164 -454 -60 -112 83 -159 188
-151 340 3 70 10 104 30 147 32 71 92 135 159 173 48 26 62 29 148 29 79 0
102 -4 136 -22 59 -31 103 -71 134 -119 l26 -42 138 66 c155 74 152 69 99 160
-62 105 -199 201 -338 237 -88 23 -256 28 -335 10z"/>
<path d="M7440 3525 c0 -3 89 -229 199 -502 109 -274 224 -564 255 -645 l58
-146 -20 -45 c-26 -59 -88 -126 -137 -148 -27 -12 -64 -19 -111 -19 l-72 0 -4
-142 c-3 -79 -3 -145 -1 -147 2 -3 47 -5 101 -4 161 0 275 45 363 141 88 96
131 189 374 807 144 366 325 825 332 843 4 9 -33 12 -165 12 l-170 0 -10 -27
c-31 -79 -264 -720 -287 -792 -21 -63 -30 -80 -35 -65 -55 148 -308 810 -321
842 l-18 42 -166 0 c-91 0 -165 -2 -165 -5z"/>
</g>
</svg>
