<svg id="OBJECTS" xmlns="http://www.w3.org/2000/svg" xmlns:xlink="http://www.w3.org/1999/xlink" viewBox="0 0 403.33 218.09"><defs><style>.cls-1{fill:url(#radial-gradient);}.cls-2{fill:url(#Degradado_sin_nombre_4);}.cls-3{fill:url(#linear-gradient);}.cls-4{fill:url(#linear-gradient-2);}.cls-5{font-size:27.2px;fill:#fff;font-family:Montserrat-Bold, Montserrat;font-weight:700;letter-spacing:0.2em;}.cls-6{font-size:20.4px;fill:#7edcb9;font-family:Montserrat-Medium, Montserrat;letter-spacing:1.09em;}.cls-7{letter-spacing:1.1em;}</style><radialGradient id="radial-gradient" cx="81.73" cy="288.87" r="117.23" gradientTransform="translate(-46.49 -135.08) scale(1.22 1.28)" gradientUnits="userSpaceOnUse"><stop offset="0.17" stop-color="#4674b5"/><stop offset="0.33" stop-color="#4878b5"/><stop offset="0.49" stop-color="#4f84b6"/><stop offset="0.66" stop-color="#5998b6"/><stop offset="0.82" stop-color="#68b4b7"/><stop offset="0.98" stop-color="#7cd8b9"/><stop offset="1" stop-color="#7edcb9"/></radialGradient><linearGradient id="Degradado_sin_nombre_4" x1="75.04" y1="221.66" x2="256.21" y2="221.66" gradientUnits="userSpaceOnUse"><stop offset="0" stop-color="#7edcb9"/><stop offset="0.02" stop-color="#7cd8b9"/><stop offset="0.18" stop-color="#68b4b7"/><stop offset="0.34" stop-color="#5998b6"/><stop offset="0.51" stop-color="#4f84b6"/><stop offset="0.67" stop-color="#4878b5"/><stop offset="0.83" stop-color="#4674b5"/></linearGradient><linearGradient id="linear-gradient" x1="1428.77" y1="219.84" x2="1559.63" y2="219.84" gradientTransform="translate(1880.21 421.26) rotate(180)" gradientUnits="userSpaceOnUse"><stop offset="0.01" stop-color="#8c0053"/><stop offset="0.14" stop-color="#8f0651"/><stop offset="0.32" stop-color="#99174d"/><stop offset="0.53" stop-color="#a93445"/><stop offset="0.76" stop-color="#bf5b3b"/><stop offset="1" stop-color="#db8d2e"/></linearGradient><linearGradient id="linear-gradient-2" x1="1455.54" y1="158.08" x2="1638.64" y2="158.08" gradientTransform="translate(1880.21 421.26) rotate(180)" gradientUnits="userSpaceOnUse"><stop offset="0" stop-color="#db8d2e"/><stop offset="0.24" stop-color="#bf5b3b"/><stop offset="0.47" stop-color="#a93445"/><stop offset="0.68" stop-color="#99174d"/><stop offset="0.86" stop-color="#8f0651"/><stop offset="0.99" stop-color="#8c0053"/></linearGradient></defs><title>Logo</title><path class="cls-1" d="M134.07,343.54a24.88,24.88,0,0,0,36.42,0h0a28,28,0,0,0,0-38.27l-78-82a24.88,24.88,0,0,0-36.42,0h0a28,28,0,0,0,0,38.27l46.13,48.36Z" transform="translate(-48.33 -133.37)"/><path class="cls-2" d="M170.49,141.3a24.88,24.88,0,0,0-36.42,0l-78,82c-9.85,10.35-10.46,26.54-1,37.15l.4.45.52.54.11.13.13.13,46,48.28c-24.77-26,8.49-67.53,8.49-67.53h0l59.79-62.84A28,28,0,0,0,170.49,141.3Z" transform="translate(-48.33 -133.37)"/><path class="cls-3" d="M365,141.3a25.32,25.32,0,0,0-36.8,0h0a27.82,27.82,0,0,0,0,38.27l78.81,82a25.31,25.31,0,0,0,36.8,0h0a27.82,27.82,0,0,0,0-38.27L397.2,174.89Z" transform="translate(-48.33 -133.37)"/><path class="cls-4" d="M328.21,343.54a25.32,25.32,0,0,0,36.8,0l78.81-82c10-10.35,10.58-26.54,1-37.15l-.4-.45-.52-.55a1.36,1.36,0,0,0-.12-.12.8.8,0,0,0-.13-.13L397.2,174.89c25,26-8.57,67.54-8.57,67.54h0l-60.42,62.85A27.82,27.82,0,0,0,328.21,343.54Z" transform="translate(-48.33 -133.37)"/><text class="cls-5" transform="translate(79.74 112.31)">DEVELOPERS</text><text class="cls-6" transform="translate(135.78 136.44)">C<tspan class="cls-7" x="36.35" y="0">ODE</tspan></text></svg>